<svg width="155" height="auto" viewBox="0 0 155 55" fill="none" xmlns="http://www.w3.org/2000/svg">
<path d="M43.399 18.5631C43.848 18.799 44.6987 18.9687 44.8147 19.3654C45.0854 20.2867 44.5075 20.8377 43.6611 21.4218C41.5709 22.8654 39.6376 24.5537 37.7106 26.2266C37.4013 26.4955 37.44 27.1831 37.3175 27.679C37.7944 27.6967 38.3121 27.8443 38.7439 27.7099C40.731 27.0883 42.7095 26.4293 44.6643 25.702C46.9349 24.8579 49.1841 23.9498 51.4246 23.0285C52.0992 22.7508 52.6942 22.2637 53.3709 22.0036C53.7039 21.8758 54.1679 21.9794 54.5374 22.0918C55.5105 22.3915 56.4664 22.7552 57.4288 23.0968C57.4933 23.1189 57.5706 23.1541 57.6028 23.207C58.0282 23.9167 58.5158 24.5427 59.4481 24.2187C60.1613 23.9696 60.8938 23.7206 61.5297 23.3239C63.0313 22.3849 64.2063 22.6494 65.2117 24.2584C65.7444 25.1135 67.1171 25.3692 68.3566 24.8711C69.7207 24.3245 71.0612 23.6875 72.4661 23.2908C74.045 22.8434 74.8033 21.77 75.4091 20.3153C76.4703 17.7697 77.5917 15.2373 78.8677 12.7974C79.9096 10.8049 81.1534 8.91608 82.4165 7.05808C83.1705 5.94945 84.0727 4.92678 85.0158 3.97904C86.2897 2.7007 87.5979 1.43118 89.0286 0.348998C89.9759 -0.367313 90.7622 0.108759 91.3057 0.966128C92.5495 2.92331 91.4474 4.46613 90.6075 6.04643C89.6537 7.84051 88.6784 9.63239 87.5743 11.3317C86.6957 12.6872 85.5958 13.8906 84.6227 15.1844C84.3026 15.6097 84.0749 16.1078 83.8064 16.5729C83.7075 16.7448 83.6367 16.941 83.5099 17.0864C82.2811 18.4772 81.1039 19.9274 79.7871 21.2234C78.8677 22.1293 77.6969 22.7596 76.756 23.6456C76.4166 23.9652 76.3693 24.6617 76.3071 25.2017C76.2899 25.345 76.7088 25.6866 76.9171 25.68C77.1792 25.6689 77.4327 25.3956 77.6862 25.2303C78.7538 24.5317 79.8086 23.8087 80.8934 23.1409C81.6968 22.6472 82.5089 21.9948 83.3832 21.856C83.9438 21.7678 84.6399 22.4643 85.2328 22.8764C85.3015 22.9249 85.0888 23.3988 85.0072 23.6743C84.9922 23.725 84.9836 23.7801 84.9728 23.833C85.0652 23.8109 85.1683 23.8087 85.2456 23.7625C86.2446 23.1519 87.2198 22.4973 88.2424 21.9309C88.7429 21.6554 89.3766 21.3468 89.6 22.3232C89.6129 22.3827 89.8191 22.3739 89.8922 22.4444C90.1113 22.6538 90.4872 22.8853 90.4872 23.1079C90.4915 24.2055 91.2197 24.5361 92.0189 24.514C94.5129 24.4435 97.022 24.395 99.4881 24.049C100.45 23.9145 101.336 23.0484 102.206 22.4422C102.921 21.9441 103.492 21.1793 104.257 20.8091C106.021 19.9561 107.653 20.9148 108.175 22.8875C108.573 24.3928 110.386 25.0805 111.763 24.2892C113.303 23.4054 114.777 22.3938 116.326 21.5232C116.957 21.1683 117.694 20.9479 118.407 20.8443C118.671 20.8068 119.009 21.2785 119.312 21.521C119.507 21.6774 119.696 21.8383 119.889 21.997C119.926 21.8185 119.922 21.6135 120.01 21.4703C120.173 21.2014 120.368 20.787 120.594 20.7539C121.281 20.6526 122.005 20.6195 122.686 20.7319C123.034 20.7892 123.445 21.1529 123.612 21.4879C123.844 21.9529 123.876 22.5238 123.992 23.0484C124.014 23.1453 124.035 23.2423 124.055 23.3393C124.151 23.293 124.25 23.2511 124.345 23.196C125.21 22.7023 126.076 22.2086 126.938 21.7061C127.155 21.5783 127.35 21.4085 127.558 21.2631C128.617 20.5203 129.696 19.8062 130.729 19.0282C131.453 18.4838 132.091 17.8226 132.811 17.2716C134.282 16.1475 135.764 15.0389 137.275 13.9699C138.823 12.8723 140.439 11.8717 141.975 10.7542C144.755 8.73315 147.491 6.65254 150.254 4.60719C150.997 4.05618 151.721 3.44346 152.544 3.05776C153.094 2.79988 153.88 2.68307 154.406 2.90127C154.757 3.04453 155.064 3.92835 154.989 4.41324C154.658 6.53132 152.462 6.03761 151.257 7.00518C150.033 7.98818 148.49 8.53919 147.152 9.38995C146.179 10.0071 145.315 10.8005 144.4 11.5146C142.299 13.1566 140.211 14.8141 138.093 16.4318C135.668 18.2832 133.21 20.0927 130.772 21.9309C128.669 23.5178 126.562 25.1003 124.482 26.7203C123.09 27.8047 121.522 27.3506 120.936 25.6491C120.903 25.5543 120.667 25.4309 120.618 25.464C120.096 25.8078 119.612 26.2178 119.077 26.5329C118.79 26.7026 118.33 26.901 118.106 26.7798C117.421 26.4095 116.817 25.8849 116.171 25.4353C116.031 25.3383 115.799 25.2105 115.694 25.2656C114.564 25.8585 113.481 26.5638 112.317 27.0729C111.78 27.3065 111.075 27.0905 110.476 27.2228C109.219 27.5027 108.104 27.2426 107.063 26.5175C106.893 26.3985 106.631 26.3213 106.564 26.1582C106.081 24.9659 105.6 25.5609 104.914 26.015C103.677 26.8349 102.386 27.6526 101.005 28.1331C100.139 28.4328 99.1981 28.0295 98.3667 27.2382C97.8834 26.7776 96.7535 26.9495 95.92 26.9759C94.7471 27.0134 93.5784 27.2052 92.4055 27.2801C91.8234 27.3176 91.1961 27.3705 90.6612 27.1897C89.8793 26.9275 89.1618 26.4646 88.4207 26.0789C88.3412 26.037 88.2595 25.9687 88.2166 25.8916C88.0275 25.5477 88.0082 24.8953 87.3659 25.4684C87.0566 25.7439 86.6978 25.9577 86.3627 26.2045C86.3004 26.2508 86.2596 26.3346 86.193 26.3676C84.8611 27.0354 83.8429 28.4152 82.0534 28.0295C81.0266 27.8069 80.2318 27.549 80.1867 26.3037C80.1867 26.2839 79.9998 26.2266 79.9461 26.2596C78.6378 27.0928 77.3038 27.8862 76.045 28.7943C74.4725 29.9271 72.9602 31.1504 71.4285 32.3428C70.7196 32.8938 70.0215 33.4602 69.3255 34.0288C66.9023 36.0103 64.4383 37.9454 62.0732 39.9974C60.0883 41.7209 58.2301 43.5944 56.2946 45.3796C54.9734 46.5985 53.6115 47.7754 52.2753 48.9788C51.4784 49.6973 50.6599 50.4004 49.9145 51.1718C49.0616 52.0534 48.2282 52.9637 47.4806 53.9379C46.8619 54.7446 45.0596 55.3529 44.2519 54.7666C43.833 54.4625 43.2658 53.5919 43.3797 53.4266C43.8824 52.7036 44.5827 52.1107 45.2701 51.5443C45.5236 51.3349 46.0091 51.4209 46.2604 51.2115C48.4687 49.3667 50.6513 47.4889 52.8317 45.6088C54.8897 43.8346 56.9476 42.0581 58.9841 40.2552C60.1506 39.2238 61.2418 38.1019 62.4255 37.0903C63.4931 36.1778 64.6575 35.3865 65.7423 34.4917C66.9818 33.4668 68.159 32.3604 69.4028 31.3399C70.6101 30.3503 71.8775 29.4401 73.0891 28.4593C73.2072 28.3623 73.1492 28.0008 73.1256 27.7672C73.1063 27.5754 72.9537 27.3881 72.9666 27.2074C72.9989 26.771 73.0977 26.339 73.1492 25.9026C73.1535 25.8695 72.9774 25.7615 72.9172 25.7836C71.6842 26.2354 70.4747 26.7732 69.218 27.139C68.0988 27.4652 66.9216 27.8025 65.781 27.765C64.6102 27.7253 63.1945 27.5622 62.3525 26.8613C61.2375 25.9356 60.3074 26.815 59.3235 26.599C58.2709 26.3676 57.199 26.1869 56.127 26.1075C55.5792 26.0679 54.8768 26.123 54.4815 26.4448C53.2205 27.4652 52.0175 27.3683 50.7501 26.5682C50.6878 26.5285 50.6169 26.447 50.6105 26.3786C50.5009 25.2237 50.0391 26.0282 49.6481 26.1715C48.8554 26.4602 48.0262 26.6453 47.2443 26.9561C45.066 27.8157 42.9028 28.7149 40.7331 29.6009C39.0039 30.3084 37.2531 30.6192 35.4959 29.764C35.2037 29.6208 35.0039 29.1998 34.8407 28.8648C34.2306 27.6085 33.4164 27.9259 32.5808 28.543C30.7656 29.8831 28.9804 31.2672 27.1523 32.5874C24.6389 34.4035 22.0848 36.1557 19.5735 37.9741C17.0881 39.7748 14.637 41.624 12.1666 43.4445C11.1978 44.1586 10.201 44.833 9.23647 45.5515C7.74134 46.6646 6.25265 47.7886 4.77685 48.9281C3.95194 49.5651 3.24089 50.4511 2.32362 50.8302C1.68561 51.0925 0.781225 50.6958 0.00787908 50.5349C-0.0307882 50.526 0.0873619 49.953 0.0508427 49.6532C-0.063011 48.7165 0.532036 48.5755 1.21731 48.3749C1.71354 48.2294 2.16251 47.8768 2.59859 47.566C4.46106 46.2436 6.30206 44.8859 8.17098 43.5745C10.2612 42.1088 12.3922 40.7005 14.4759 39.226C17.7476 36.9139 21.0021 34.5732 24.2544 32.2304C26.321 30.7426 28.366 29.2241 30.4262 27.7275C32.1254 26.4911 33.8418 25.281 35.5302 24.0313C37.8889 22.2836 40.2262 20.5049 42.5849 18.7571C42.7567 18.6293 43.0295 18.6425 43.4012 18.5587L43.399 18.5631ZM78.1803 18.94C78.2705 19.1053 78.3242 19.264 78.3629 19.2596C78.4961 19.2486 78.6679 19.2199 78.7495 19.1274C79.7549 17.9879 80.7624 16.8506 81.7377 15.6825C82.4401 14.8427 83.1039 13.9699 83.7655 13.0949C84.367 12.3015 84.9342 11.4838 85.5292 10.6859C85.9567 10.1151 86.4422 9.59052 86.831 8.99543C87.0523 8.65821 87.0909 8.20197 87.2778 7.8317C87.9524 6.49164 88.6591 5.16702 89.3401 3.82917C89.3938 3.72337 89.3508 3.56468 89.353 3.43024C89.2434 3.45007 89.1016 3.43024 89.0329 3.49416C87.6817 4.72621 86.1071 5.79296 85.048 7.24983C83.2049 9.78447 81.6474 12.5417 80.0363 15.2483C79.3317 16.4296 78.7904 17.7146 78.1824 18.9378L78.1803 18.94Z" fill="#D4CBC4"/>
</svg>
