<?xml version="1.0" standalone="no"?>
<!DOCTYPE svg PUBLIC "-//W3C//DTD SVG 20010904//EN"
 "http://www.w3.org/TR/2001/REC-SVG-20010904/DTD/svg10.dtd">
<svg version="1.0" xmlns="http://www.w3.org/2000/svg"
 width="700.000000pt" height="700.000000pt" viewBox="0 0 700.000000 700.000000"
 preserveAspectRatio="xMidYMid meet">
<metadata>
Created by potrace 1.14, written by Peter Selinger 2001-2017
</metadata>
<g transform="translate(0.000000,700.000000) scale(0.100000,-0.100000)"
fill="#000000" stroke="none">
<path d="M3190 6704 c-146 -85 -326 -189 -400 -232 -74 -42 -142 -81 -151 -87
-9 -5 -43 -25 -75 -43 -32 -17 -66 -37 -74 -42 -8 -5 -82 -49 -165 -96 -202
-117 -754 -435 -1150 -664 -126 -73 -246 -142 -265 -153 -160 -90 -310 -181
-324 -196 -15 -16 -16 -159 -19 -1667 -2 -907 0 -1660 5 -1674 6 -19 52 -50
186 -126 97 -56 278 -160 402 -231 657 -379 1159 -668 1190 -685 19 -11 60
-35 90 -53 30 -18 75 -44 100 -57 25 -14 160 -92 300 -173 140 -81 273 -157
295 -169 22 -13 101 -58 175 -101 87 -51 145 -78 165 -78 20 -1 79 28 178 86
82 48 167 98 190 111 23 13 171 98 330 190 158 92 302 175 320 185 17 10 75
43 127 73 52 30 156 90 230 133 74 43 250 145 390 226 140 80 327 188 415 239
88 51 176 102 195 113 19 11 109 62 200 115 91 52 199 115 242 139 42 24 80
52 83 61 11 26 16 3307 6 3335 -8 21 -156 114 -336 213 -11 6 -141 81 -290
166 -148 86 -286 165 -305 176 -124 70 -697 401 -755 435 -38 23 -74 44 -80
46 -5 2 -30 16 -55 31 -36 22 -522 302 -690 398 -19 11 -91 52 -160 92 -197
115 -208 120 -232 119 -13 0 -142 -70 -288 -155z m461 -246 c90 -112 208 -259
264 -328 56 -69 184 -228 286 -355 102 -126 336 -417 520 -645 184 -228 349
-434 367 -458 l34 -42 -384 0 c-210 -1 -929 -2 -1596 -3 -668 -1 -1215 0
-1217 3 -1 3 104 143 234 312 130 169 244 318 253 330 28 37 238 312 251 328
7 8 116 150 242 315 126 165 253 332 283 370 30 39 106 139 170 223 64 83 120
152 124 152 4 0 80 -91 169 -202z m-469 60 c-5 -7 -96 -125 -201 -263 -106
-137 -203 -263 -215 -280 -13 -16 -41 -52 -62 -80 -47 -63 -225 -295 -241
-315 -13 -16 -77 -100 -461 -602 -133 -174 -247 -320 -252 -323 -6 -3 -54 17
-107 46 -145 77 -189 100 -525 278 -170 90 -310 166 -312 170 -3 4 70 50 162
103 181 104 316 182 777 448 165 96 309 178 320 184 11 6 31 19 45 27 20 13
517 300 670 387 19 10 76 43 125 72 50 29 110 64 133 77 24 14 65 38 90 53 51
31 70 37 54 18z m724 -59 c108 -64 1140 -659 1228 -709 128 -72 656 -376 676
-389 14 -8 43 -25 65 -37 124 -68 277 -162 277 -170 0 -5 -13 -16 -29 -25 -15
-9 -131 -76 -258 -149 -126 -74 -241 -140 -255 -147 -14 -8 -90 -52 -169 -97
l-143 -84 -32 37 c-18 20 -106 128 -197 241 -90 113 -171 214 -180 225 -10 11
-46 56 -81 100 -34 44 -71 89 -80 100 -15 18 -504 626 -566 704 -15 18 -34 41
-42 51 -18 22 -32 39 -85 105 -21 28 -42 52 -45 55 -31 28 -195 248 -182 242
10 -4 54 -28 98 -53z m2335 -1706 c0 -147 -1 -762 -1 -1367 -1 -604 -3 -1097
-4 -1095 -4 4 -54 131 -193 489 -52 135 -105 272 -118 305 -13 33 -66 170
-118 305 -52 135 -172 445 -267 689 -94 244 -170 444 -168 446 7 6 795 460
820 473 15 7 30 18 34 23 3 6 8 8 11 5 3 -2 5 -125 4 -273z m-5438 228 c139
-74 373 -199 462 -246 90 -47 201 -106 325 -173 36 -19 69 -38 73 -42 7 -6
-201 -516 -284 -697 -10 -24 -19 -45 -19 -48 0 -4 -15 -38 -60 -140 -5 -11
-82 -193 -171 -405 -88 -212 -167 -400 -175 -417 -8 -18 -20 -48 -28 -65 -8
-18 -51 -121 -96 -228 -45 -107 -90 -213 -100 -235 -18 -39 -19 -4 -17 1347 1
764 5 1388 10 1388 4 0 40 -17 80 -39z m992 -621 c11 -21 133 -234 150 -261 5
-9 19 -32 29 -50 10 -19 222 -385 469 -814 248 -429 548 -949 667 -1155 119
-206 229 -397 244 -423 l29 -48 -39 5 c-22 3 -61 8 -89 11 -27 4 -61 8 -75 10
-14 2 -50 6 -80 10 -30 3 -66 8 -80 10 -14 2 -50 7 -80 10 -30 4 -66 8 -80 10
-14 2 -51 7 -83 10 -32 4 -67 8 -78 10 -11 2 -50 7 -87 11 -36 3 -75 8 -85 10
-11 2 -45 6 -76 9 -31 3 -65 8 -76 10 -11 2 -49 7 -85 10 -36 4 -72 8 -80 10
-8 3 -42 7 -75 10 -33 4 -71 8 -85 10 -26 4 -178 23 -240 30 -19 2 -251 31
-515 64 -264 33 -495 62 -512 63 -18 1 -33 6 -33 12 0 7 254 618 305 731 7 17
36 84 63 150 28 66 89 210 135 320 47 110 97 229 112 265 29 70 44 104 68 160
18 41 241 572 300 713 22 53 43 97 46 97 4 0 11 -9 16 -20z m3570 -235 c54
-137 108 -277 120 -310 51 -134 406 -1051 414 -1070 6 -11 55 -139 111 -285
55 -146 105 -274 110 -285 5 -11 27 -67 49 -125 l39 -105 -46 -7 c-26 -4 -69
-9 -97 -12 -27 -3 -99 -13 -160 -21 -110 -15 -160 -22 -225 -30 -149 -19 -360
-46 -385 -50 -16 -2 -52 -7 -80 -10 -27 -3 -75 -10 -105 -15 -30 -5 -80 -11
-111 -15 -31 -3 -65 -7 -75 -9 -11 -2 -46 -7 -79 -10 -56 -7 -250 -32 -305
-41 -14 -2 -50 -7 -80 -10 -30 -3 -82 -10 -115 -15 -33 -5 -85 -11 -115 -15
-30 -3 -66 -8 -80 -10 -32 -5 -87 -13 -225 -30 -50 -6 -171 -22 -233 -30 l-32
-5 14 29 c9 16 127 222 264 457 137 236 260 449 274 474 26 45 930 1606 1008
1740 23 39 43 70 45 68 2 -2 47 -115 100 -253z m-3935 -2420 c415 -51 432 -54
480 -60 19 -3 55 -7 80 -10 25 -3 61 -7 80 -10 19 -2 60 -7 90 -10 30 -4 62
-8 70 -10 8 -2 40 -6 70 -10 30 -3 71 -8 90 -10 19 -2 58 -7 85 -10 28 -4 65
-8 84 -10 18 -3 50 -7 70 -9 20 -3 59 -8 86 -11 28 -3 61 -7 75 -10 14 -2 50
-7 81 -10 31 -3 65 -7 75 -9 11 -2 48 -7 84 -11 36 -3 76 -8 90 -10 14 -2 50
-7 80 -10 30 -4 62 -9 70 -10 9 -2 47 -6 85 -10 46 -4 74 -11 82 -22 7 -9 11
-19 8 -22 -2 -4 -6 -94 -10 -201 -3 -107 -8 -235 -10 -285 -4 -83 -17 -440
-19 -527 -1 -21 -1 -38 -2 -38 -1 0 -97 56 -215 123 -118 68 -234 135 -259
149 -25 14 -144 83 -265 153 -121 70 -341 197 -490 282 -148 86 -326 188 -395
228 -69 40 -264 152 -435 250 -170 98 -319 185 -330 192 -18 13 -17 14 15 9
19 -4 199 -26 400 -51z m4500 44 c-20 -13 -578 -336 -650 -376 -30 -17 -192
-110 -360 -208 -168 -97 -321 -186 -340 -197 -19 -10 -42 -23 -50 -28 -34 -21
-775 -448 -886 -511 -21 -12 -48 -28 -59 -35 -11 -8 -23 -14 -27 -14 -4 0 -6
55 -3 123 12 318 15 402 20 537 9 269 16 404 21 409 5 5 11 6 84 16 25 3 72
10 105 15 33 5 87 11 120 15 33 3 67 8 75 10 8 2 42 6 75 10 33 3 67 8 75 10
8 2 42 6 75 10 33 3 67 8 75 10 8 2 42 6 75 10 33 3 110 13 170 21 61 8 128
17 150 20 22 3 51 7 65 9 14 2 50 6 81 10 31 3 65 7 75 9 11 2 46 7 79 10 33
4 87 11 120 16 33 5 80 12 105 15 25 3 68 8 95 12 28 3 57 7 65 8 72 9 129 17
150 20 14 2 50 7 80 10 30 4 64 9 75 11 11 2 44 6 75 9 30 3 78 9 105 14 72
12 104 12 85 0z"/>
</g>
</svg>
